<svg xmlns="http://www.w3.org/2000/svg" width="20" height="17.1" viewBox="0 0 20 17.1">
  <title>Recurso 1</title>
  <g id="Capa_2" data-name="Capa 2">
    <g id="Capa_1-2" data-name="Capa 1">
      <path d="M0,1.4A1.37,1.37,0,0,1,1.4,0H18.5a1.37,1.37,0,0,1,1.4,1.4,1.37,1.37,0,0,1-1.4,1.4H1.4A1.43,1.43,0,0,1,0,1.4ZM0,8.5A1.37,1.37,0,0,1,1.4,7.1H18.5a1.4,1.4,0,0,1,0,2.8H1.4A1.37,1.37,0,0,1,0,8.5Zm18.6,8.6H1.5a1.4,1.4,0,1,1,0-2.8H18.6A1.37,1.37,0,0,1,20,15.7,1.43,1.43,0,0,1,18.6,17.1Z"/>
    </g>
  </g>
</svg>
